<svg xmlns:xlink="http://www.w3.org/1999/xlink" xmlns="http://www.w3.org/2000/svg" width="81" height="30" class="logo-desktop"><defs><symbol width="81" height="30" viewBox="0 0 81 30" fill="none" xmlns="http://www.w3.org/2000/svg" id="logo-new">
        <path d="M81 3.68505H62.2537V8.22479H75.2935V11.9089H62.2537V20.9844H57.9183V0.000976562H81V3.68505Z" fill="currentColor"></path>
        <path d="M53.6924 20.9842H49.2244L49.25 3.72059L38.0883 18.0173L26.856 3.44972L26.8545 20.9842H22.5206V0H29.0275L38.0855 11.8673L47.1713 0H53.6924V20.9842Z" fill="currentColor"></path>
        <path d="M0 20.9835H22.5216V0.00195312H0V20.9835Z" fill="#AB077E"></path>
        <path d="M6.61309 29.8689H5.67135L5.67218 26.2096L3.30612 29.2406L0.925374 26.1455V29.8689H0.00720215V25.4221H1.3856L3.30529 27.9369L5.23076 25.4221H6.61309V29.8689Z" fill="currentColor"></path>
        <path d="M13.7857 29.8689H12.7741L12.233 28.9146H9.06891L8.52848 29.8689H7.51624L10.0814 25.4221H11.2214L13.7858 29.8689H13.7857ZM11.7743 28.134L10.6553 26.1641L9.52917 28.134H11.7743Z" fill="currentColor"></path>
        <path d="M20.2316 29.8689H19.1791L17.9464 28.2352H15.6081V29.8689H14.6891V25.4221H18.4943C18.9939 25.4221 19.3921 25.5495 19.6883 25.8051C19.9836 26.0608 20.1316 26.4032 20.1316 26.8317C20.1316 27.5697 19.7414 28.0209 18.9609 28.1842L20.2316 29.8689ZM18.3564 27.4539C18.913 27.4539 19.1909 27.252 19.1909 26.8469C19.1909 26.4176 18.8946 26.2028 18.3024 26.2028H15.6081V27.4539H18.3564H18.3564Z" fill="currentColor"></path>
        <path d="M27.2203 29.8689H26.035L23.7901 27.6158L22.451 28.524V29.8689H21.5326V25.4221H22.451V27.5986L25.6581 25.4221H27.0226L24.4997 27.1252L27.2203 29.8689Z" fill="currentColor"></path>
        <path d="M35.2195 26.2026H31.2468V27.1652H34.0102V27.9459H31.2468V29.8689H30.3278V25.4221H35.2195V26.2026Z" fill="currentColor"></path>
        <path d="M42.1247 27.6352C42.1247 28.3635 41.7957 28.9568 41.137 29.4137C40.5755 29.8049 39.8746 30 39.0321 30C38.1898 30 37.4858 29.8049 36.9199 29.4137C36.2606 28.9609 35.9316 28.3684 35.9316 27.6352C35.9316 26.9118 36.2635 26.3235 36.9271 25.8708C37.5085 25.4704 38.2109 25.2706 39.0321 25.2706C39.849 25.2706 40.5478 25.4704 41.1292 25.8708C41.7928 26.3282 42.1247 26.9173 42.1247 27.6352H42.1247ZM41.1679 27.6311C41.1679 27.1723 40.9687 26.794 40.5697 26.4977C40.1707 26.2008 39.6573 26.0512 39.0278 26.0512C38.3947 26.0512 37.8768 26.2014 37.4751 26.5012C37.0746 26.8008 36.874 27.177 36.874 27.6311C36.874 28.1051 37.0702 28.4883 37.4641 28.7805C37.8571 29.0725 38.3786 29.2186 39.0278 29.2186C39.6726 29.2186 40.1903 29.0725 40.5813 28.7805C40.9723 28.4883 41.1679 28.1051 41.1679 27.6311Z" fill="currentColor"></path>
        <path d="M48.9909 29.8689H47.9384L46.7057 28.2352H44.3682V29.8689H43.4492V25.4221H47.2537C47.7532 25.4221 48.1522 25.5495 48.4476 25.8051C48.7437 26.0608 48.8917 26.4032 48.8917 26.8317C48.8917 27.5697 48.5008 28.0209 47.7205 28.1842L48.991 29.8689H48.9909ZM47.1157 27.4539C47.6723 27.4539 47.9502 27.252 47.9502 26.8469C47.9502 26.4176 47.6541 26.2028 47.0626 26.2028H44.3682V27.4539H47.1157H47.1157Z" fill="currentColor"></path>
        <path d="M56.899 29.8689H55.9575V26.2096L53.5929 29.2406L51.2115 26.151V29.8689H50.2925V25.4221H51.6717L53.592 27.9369L55.5169 25.4221H56.899V29.8689Z" fill="currentColor"></path>
        <path d="M63.5743 29.8689H58.5066V25.4221H63.3985V26.2028H59.4256V27.1652H62.1884V27.9459H59.4256V29.0883H63.5743V29.8689Z" fill="currentColor"></path>
        <path d="M69.3159 29.8689H64.761V25.4221H65.68V29.0883H69.3159V29.8689Z" fill="currentColor"></path>
        <path d="M74.8656 29.8689H70.3113V25.4221H71.2296V29.0883H74.8656V29.8689Z" fill="currentColor"></path>
        <path d="M80.9283 29.8689H75.8606V25.4221H80.7525V26.2028H76.779V27.1652H79.5426V27.9459H76.779V29.0883H80.9283V29.8689Z" fill="currentColor"></path>
    </symbol></defs>
                        <use xlink:href="#logo-new"></use>
                    </svg>